<?xml version="1.0" encoding="iso-8859-1"?>
<!-- Uploaded to: SVG Repo, www.svgrepo.com, Generator: SVG Repo Mixer Tools -->
<svg fill="#000000" height="800px" width="800px" version="1.1" id="Capa_1" xmlns="http://www.w3.org/2000/svg" xmlns:xlink="http://www.w3.org/1999/xlink" 
	 viewBox="0 0 490 490" xml:space="preserve">
<g>
	<path d="M184.318,490l78.378-298.026l219.785,55.75C479.394,136.656,403.588,36.542,290.56,7.871
		C269.568,2.546,248.528,0,227.828,0C137.076,0,52.837,48.94,7.518,127.247l225.504,57.201L154.71,482.224L184.318,490z
		 M281.458,48.669c47.047,10.959,57,87.53,57.087,130.949l-175.724-44.573C185.817,101.158,238.379,38.797,281.458,48.669z
		 M446.781,207.073l-77.738-19.719c0.454-23.708-1.134-82.068-24.771-123.995C396.138,95.076,433.609,147.104,446.781,207.073z
		 M224.543,30.671c-48.219,26.944-86.082,85.152-93.098,96.415l-73.183-18.563C99.694,60.524,160.249,31.626,224.543,30.671z"/>
</g>
</svg>